G75*
G70*
%OFA0B0*%
%FSLAX24Y24*%
%IPPOS*%
%LPD*%
%AMOC8*
5,1,8,0,0,1.08239X$1,22.5*
%
%ADD10C,0.0000*%
%ADD11C,0.0030*%
%ADD12C,0.0080*%
%ADD13C,0.0100*%
%ADD14C,0.0050*%
D10*
X000207Y000136D02*
X000207Y006136D01*
X008357Y006136D01*
X008357Y000136D01*
X000207Y000136D01*
D11*
X001857Y000556D02*
X001942Y000556D01*
X001971Y000584D01*
X001971Y000698D01*
X001942Y000726D01*
X001857Y000726D01*
X001857Y000556D01*
X002042Y000584D02*
X002070Y000556D01*
X002127Y000556D01*
X002155Y000584D01*
X002155Y000641D01*
X002127Y000669D01*
X002098Y000669D01*
X002042Y000641D01*
X002042Y000726D01*
X002155Y000726D01*
X002872Y001043D02*
X002932Y001103D01*
X002972Y001103D01*
X003053Y001022D01*
X003053Y000982D01*
X002992Y000922D01*
X002872Y001043D01*
X003062Y001113D02*
X003123Y001173D01*
X003163Y001173D01*
X003183Y001153D01*
X003183Y001113D01*
X003143Y001072D01*
X003103Y001072D01*
X003062Y001113D01*
X003062Y001193D01*
X003082Y001253D01*
X003372Y001043D02*
X003432Y001103D01*
X003472Y001103D01*
X003553Y001022D01*
X003553Y000982D01*
X003492Y000922D01*
X003372Y001043D01*
X003502Y001173D02*
X003582Y001253D01*
X003603Y001233D01*
X003603Y001072D01*
X003623Y001052D01*
X003872Y001043D02*
X003932Y001103D01*
X003972Y001103D01*
X004053Y001022D01*
X004053Y000982D01*
X003992Y000922D01*
X003872Y001043D01*
X004022Y001153D02*
X004042Y001133D01*
X004082Y001133D01*
X004123Y001173D01*
X004163Y001173D01*
X004183Y001153D01*
X004183Y001113D01*
X004143Y001072D01*
X004103Y001072D01*
X004082Y001093D01*
X004082Y001133D01*
X004123Y001173D02*
X004123Y001213D01*
X004103Y001233D01*
X004062Y001233D01*
X004022Y001193D01*
X004022Y001153D01*
X004382Y001043D02*
X004442Y001103D01*
X004482Y001103D01*
X004563Y001022D01*
X004563Y000982D01*
X004502Y000922D01*
X004382Y001043D01*
X004532Y001153D02*
X004552Y001133D01*
X004592Y001133D01*
X004653Y001193D01*
X004693Y001153D02*
X004613Y001233D01*
X004572Y001233D01*
X004532Y001193D01*
X004532Y001153D01*
X004613Y001072D02*
X004653Y001072D01*
X004693Y001113D01*
X004693Y001153D01*
X004907Y001157D02*
X005077Y001157D01*
X005077Y001100D02*
X005077Y001214D01*
X005049Y001284D02*
X004936Y001398D01*
X005049Y001398D01*
X005077Y001369D01*
X005077Y001313D01*
X005049Y001284D01*
X004936Y001284D01*
X004907Y001313D01*
X004907Y001369D01*
X004936Y001398D01*
X004907Y001157D02*
X004964Y001100D01*
X004936Y001029D02*
X004907Y001001D01*
X004907Y000916D01*
X005077Y000916D01*
X005077Y001001D01*
X005049Y001029D01*
X004936Y001029D01*
X005407Y001001D02*
X005407Y000916D01*
X005577Y000916D01*
X005577Y001001D01*
X005549Y001029D01*
X005436Y001029D01*
X005407Y001001D01*
X005464Y001100D02*
X005407Y001157D01*
X005577Y001157D01*
X005577Y001100D02*
X005577Y001214D01*
X005577Y001284D02*
X005577Y001398D01*
X005577Y001341D02*
X005407Y001341D01*
X005464Y001284D01*
X005862Y001043D02*
X005922Y001103D01*
X005962Y001103D01*
X006043Y001022D01*
X006043Y000982D01*
X005982Y000922D01*
X005862Y001043D01*
X006032Y001133D02*
X006032Y001213D01*
X006153Y001093D01*
X006193Y001133D02*
X006113Y001052D01*
X006243Y001183D02*
X006243Y001343D01*
X006223Y001363D01*
X006183Y001363D01*
X006143Y001323D01*
X006143Y001283D01*
X006243Y001183D02*
X006323Y001263D01*
X006947Y002276D02*
X007032Y002276D01*
X007061Y002304D01*
X007061Y002418D01*
X007032Y002446D01*
X006947Y002446D01*
X006947Y002276D01*
X007132Y002276D02*
X007245Y002276D01*
X007188Y002276D02*
X007188Y002446D01*
X007132Y002389D01*
X007316Y002418D02*
X007344Y002446D01*
X007401Y002446D01*
X007429Y002418D01*
X007429Y002389D01*
X007401Y002361D01*
X007429Y002333D01*
X007429Y002304D01*
X007401Y002276D01*
X007344Y002276D01*
X007316Y002304D01*
X007372Y002361D02*
X007401Y002361D01*
X007382Y002786D02*
X007325Y002786D01*
X007297Y002814D01*
X007297Y002871D01*
X007382Y002871D01*
X007410Y002843D01*
X007410Y002814D01*
X007382Y002786D01*
X007297Y002871D02*
X007353Y002928D01*
X007410Y002956D01*
X007226Y002899D02*
X007226Y002786D01*
X007112Y002786D02*
X007112Y002899D01*
X007169Y002956D01*
X007226Y002899D01*
X007226Y002871D02*
X007112Y002871D01*
X007151Y003241D02*
X007108Y003284D01*
X007130Y003284D02*
X007065Y003284D01*
X007065Y003241D02*
X007065Y003371D01*
X007130Y003371D01*
X007151Y003349D01*
X007151Y003306D01*
X007130Y003284D01*
X007212Y003306D02*
X007255Y003306D01*
X007212Y003371D02*
X007212Y003241D01*
X007299Y003241D01*
X007359Y003241D02*
X007359Y003371D01*
X007446Y003371D01*
X007403Y003306D02*
X007359Y003306D01*
X007299Y003371D02*
X007212Y003371D01*
X007004Y003328D02*
X007004Y003241D01*
X006917Y003241D02*
X006917Y003328D01*
X006961Y003371D01*
X007004Y003328D01*
X007004Y003306D02*
X006917Y003306D01*
X007102Y003751D02*
X007102Y003864D01*
X007159Y003921D01*
X007216Y003864D01*
X007216Y003751D01*
X007287Y003751D02*
X007287Y003779D01*
X007400Y003893D01*
X007400Y003921D01*
X007287Y003921D01*
X007216Y003836D02*
X007102Y003836D01*
X007072Y004351D02*
X007072Y004464D01*
X007129Y004521D01*
X007186Y004464D01*
X007186Y004351D01*
X007257Y004379D02*
X007370Y004493D01*
X007370Y004379D01*
X007342Y004351D01*
X007285Y004351D01*
X007257Y004379D01*
X007257Y004493D01*
X007285Y004521D01*
X007342Y004521D01*
X007370Y004493D01*
X007186Y004436D02*
X007072Y004436D01*
X007092Y004726D02*
X007092Y004839D01*
X007149Y004896D01*
X007206Y004839D01*
X007206Y004726D01*
X007277Y004726D02*
X007390Y004726D01*
X007333Y004726D02*
X007333Y004896D01*
X007277Y004839D01*
X007206Y004811D02*
X007092Y004811D01*
X007037Y005091D02*
X007150Y005204D01*
X007150Y005233D01*
X007122Y005261D01*
X007065Y005261D01*
X007037Y005233D01*
X006966Y005204D02*
X006966Y005091D01*
X007037Y005091D02*
X007150Y005091D01*
X006966Y005176D02*
X006852Y005176D01*
X006852Y005204D02*
X006909Y005261D01*
X006966Y005204D01*
X006852Y005204D02*
X006852Y005091D01*
X006650Y005119D02*
X006622Y005091D01*
X006565Y005091D01*
X006537Y005119D01*
X006466Y005091D02*
X006466Y005204D01*
X006409Y005261D01*
X006352Y005204D01*
X006352Y005091D01*
X006352Y005176D02*
X006466Y005176D01*
X006537Y005233D02*
X006565Y005261D01*
X006622Y005261D01*
X006650Y005233D01*
X006650Y005204D01*
X006622Y005176D01*
X006650Y005148D01*
X006650Y005119D01*
X006622Y005176D02*
X006593Y005176D01*
X006145Y005166D02*
X006032Y005166D01*
X006117Y005251D01*
X006117Y005081D01*
X005961Y005081D02*
X005961Y005194D01*
X005904Y005251D01*
X005847Y005194D01*
X005847Y005081D01*
X005847Y005166D02*
X005961Y005166D01*
X005640Y005161D02*
X005640Y005104D01*
X005612Y005076D01*
X005555Y005076D01*
X005527Y005104D01*
X005527Y005161D02*
X005583Y005189D01*
X005612Y005189D01*
X005640Y005161D01*
X005527Y005161D02*
X005527Y005246D01*
X005640Y005246D01*
X005456Y005189D02*
X005456Y005076D01*
X005456Y005161D02*
X005342Y005161D01*
X005342Y005189D02*
X005342Y005076D01*
X005342Y005189D02*
X005399Y005246D01*
X005456Y005189D01*
X005057Y005155D02*
X005057Y005070D01*
X005001Y005098D02*
X005001Y005155D01*
X005029Y005184D01*
X005057Y005155D01*
X005001Y005098D02*
X004972Y005070D01*
X004944Y005098D01*
X004944Y005184D01*
X004944Y005254D02*
X004944Y005311D01*
X004916Y005283D02*
X005029Y005283D01*
X005057Y005311D01*
X005057Y004999D02*
X005001Y004943D01*
X005001Y004971D02*
X005001Y004886D01*
X005057Y004886D02*
X004887Y004886D01*
X004887Y004971D01*
X004916Y004999D01*
X004972Y004999D01*
X005001Y004971D01*
X004704Y005086D02*
X004647Y005143D01*
X004676Y005143D02*
X004591Y005143D01*
X004591Y005086D02*
X004591Y005256D01*
X004676Y005256D01*
X004704Y005228D01*
X004704Y005171D01*
X004676Y005143D01*
X004520Y005256D02*
X004407Y005256D01*
X004463Y005256D02*
X004463Y005086D01*
X004336Y005114D02*
X004336Y005228D01*
X004307Y005256D01*
X004222Y005256D01*
X004222Y005086D01*
X004307Y005086D01*
X004336Y005114D01*
X004012Y005109D02*
X003956Y005053D01*
X003956Y005081D02*
X003956Y004996D01*
X004012Y004996D02*
X003842Y004996D01*
X003842Y005081D01*
X003871Y005109D01*
X003927Y005109D01*
X003956Y005081D01*
X004012Y005180D02*
X003899Y005294D01*
X004012Y005294D02*
X003899Y005180D01*
X003607Y005170D02*
X003494Y005284D01*
X003607Y005284D02*
X003494Y005170D01*
X003437Y005099D02*
X003437Y004986D01*
X003437Y005043D02*
X003607Y005043D01*
X003058Y005031D02*
X003058Y005116D01*
X003030Y005144D01*
X002917Y005144D01*
X002888Y005116D01*
X002888Y005031D01*
X003058Y005031D01*
X003058Y005215D02*
X002945Y005328D01*
X002917Y005328D01*
X002888Y005300D01*
X002888Y005243D01*
X002917Y005215D01*
X003058Y005215D02*
X003058Y005328D01*
X002720Y005203D02*
X002720Y005174D01*
X002692Y005146D01*
X002720Y005118D01*
X002720Y005089D01*
X002692Y005061D01*
X002635Y005061D01*
X002607Y005089D01*
X002536Y005089D02*
X002536Y005203D01*
X002507Y005231D01*
X002422Y005231D01*
X002422Y005061D01*
X002507Y005061D01*
X002536Y005089D01*
X002607Y005203D02*
X002635Y005231D01*
X002692Y005231D01*
X002720Y005203D01*
X002692Y005146D02*
X002663Y005146D01*
X002195Y005146D02*
X002082Y005146D01*
X002167Y005231D01*
X002167Y005061D01*
X002011Y005089D02*
X002011Y005203D01*
X001982Y005231D01*
X001897Y005231D01*
X001897Y005061D01*
X001982Y005061D01*
X002011Y005089D01*
X001724Y005241D02*
X001732Y005271D01*
X001724Y005241D02*
X001687Y005220D01*
X001657Y005228D01*
X001614Y005303D01*
X001622Y005332D01*
X001659Y005354D01*
X001689Y005346D01*
X001561Y005272D02*
X001532Y005280D01*
X001494Y005259D01*
X001486Y005229D01*
X001530Y005154D01*
X001559Y005146D01*
X001597Y005168D01*
X001605Y005197D01*
X001466Y005142D02*
X001423Y005218D01*
X001348Y005174D02*
X001391Y005099D01*
X001450Y005083D01*
X001466Y005142D01*
X001234Y005159D02*
X001234Y005273D01*
X001206Y005301D01*
X001121Y005301D01*
X001121Y005131D01*
X001206Y005131D01*
X001234Y005159D01*
X001050Y005131D02*
X001050Y005301D01*
X000937Y005301D02*
X001050Y005131D01*
X000937Y005131D02*
X000937Y005301D01*
X000866Y005273D02*
X000837Y005301D01*
X000781Y005301D01*
X000752Y005273D01*
X000752Y005159D01*
X000781Y005131D01*
X000837Y005131D01*
X000866Y005159D01*
X000866Y005216D01*
X000809Y005216D01*
X000562Y005203D02*
X000392Y005203D01*
X000562Y005316D01*
X000392Y005316D01*
X000392Y005137D02*
X000392Y005080D01*
X000392Y005108D02*
X000562Y005108D01*
X000562Y005080D02*
X000562Y005137D01*
X000506Y005009D02*
X000392Y005009D01*
X000506Y005009D02*
X000562Y004953D01*
X000506Y004896D01*
X000392Y004896D01*
X000347Y003840D02*
X000517Y003840D01*
X000517Y003727D02*
X000347Y003727D01*
X000404Y003783D01*
X000347Y003840D01*
X000376Y003656D02*
X000347Y003627D01*
X000347Y003571D01*
X000376Y003542D01*
X000489Y003542D01*
X000517Y003571D01*
X000517Y003627D01*
X000489Y003656D01*
X000376Y003656D01*
X000376Y003472D02*
X000347Y003443D01*
X000347Y003387D01*
X000376Y003358D01*
X000489Y003358D01*
X000517Y003387D01*
X000517Y003443D01*
X000489Y003472D01*
X000489Y003295D02*
X000517Y003295D01*
X000517Y003266D01*
X000489Y003266D01*
X000489Y003295D01*
X000489Y003195D02*
X000376Y003195D01*
X000347Y003167D01*
X000347Y003110D01*
X000376Y003082D01*
X000489Y003082D01*
X000517Y003110D01*
X000517Y003167D01*
X000489Y003195D01*
X000517Y003011D02*
X000347Y003011D01*
X000347Y002898D02*
X000517Y003011D01*
X000517Y002898D02*
X000347Y002898D01*
X000347Y002832D02*
X000347Y002775D01*
X000347Y002803D02*
X000517Y002803D01*
X000517Y002775D02*
X000517Y002832D01*
X000489Y002704D02*
X000347Y002704D01*
X000489Y002704D02*
X000517Y002676D01*
X000517Y002619D01*
X000489Y002591D01*
X000347Y002591D01*
X000376Y002520D02*
X000347Y002492D01*
X000347Y002407D01*
X000517Y002407D01*
X000517Y002492D01*
X000489Y002520D01*
X000376Y002520D01*
X000376Y002336D02*
X000347Y002308D01*
X000347Y002251D01*
X000376Y002223D01*
X000489Y002223D01*
X000517Y002251D01*
X000517Y002308D01*
X000489Y002336D01*
X000376Y002336D01*
X000347Y002152D02*
X000347Y002038D01*
X000347Y002095D02*
X000517Y002095D01*
X000517Y001968D02*
X000347Y001968D01*
X000404Y001911D01*
X000347Y001854D01*
X000517Y001854D01*
X000517Y001784D02*
X000517Y001670D01*
X000347Y001670D01*
X000347Y001784D01*
X000432Y001727D02*
X000432Y001670D01*
X000347Y001599D02*
X000347Y001486D01*
X000517Y001486D01*
X000432Y001486D02*
X000432Y001543D01*
X007502Y005281D02*
X007502Y005366D01*
X007531Y005394D01*
X007587Y005394D01*
X007616Y005366D01*
X007616Y005281D01*
X007672Y005281D02*
X007502Y005281D01*
X007616Y005338D02*
X007672Y005394D01*
X007672Y005465D02*
X007672Y005579D01*
X007672Y005522D02*
X007502Y005522D01*
X007559Y005465D01*
X007531Y005649D02*
X007502Y005678D01*
X007502Y005734D01*
X007531Y005763D01*
X007559Y005763D01*
X007672Y005649D01*
X007672Y005763D01*
X008101Y004387D02*
X008129Y004387D01*
X008157Y004358D01*
X008157Y004273D01*
X008186Y004202D02*
X008214Y004202D01*
X008242Y004174D01*
X008242Y004117D01*
X008214Y004089D01*
X008157Y004117D02*
X008157Y004174D01*
X008186Y004202D01*
X008101Y004202D02*
X008072Y004174D01*
X008072Y004117D01*
X008101Y004089D01*
X008129Y004089D01*
X008157Y004117D01*
X008214Y004018D02*
X008072Y004018D01*
X008214Y004018D02*
X008242Y003990D01*
X008242Y003933D01*
X008214Y003905D01*
X008072Y003905D01*
X008157Y003834D02*
X008129Y003806D01*
X008129Y003749D01*
X008157Y003721D01*
X008214Y003721D01*
X008242Y003749D01*
X008242Y003806D01*
X008214Y003834D01*
X008157Y003834D01*
X008157Y003650D02*
X008129Y003622D01*
X008129Y003536D01*
X008242Y003536D01*
X008242Y003470D02*
X008242Y003414D01*
X008242Y003442D02*
X008129Y003442D01*
X008129Y003414D01*
X008072Y003442D02*
X008044Y003442D01*
X008129Y003343D02*
X008242Y003343D01*
X008242Y003258D01*
X008214Y003230D01*
X008129Y003230D01*
X008129Y003159D02*
X008129Y003074D01*
X008157Y003045D01*
X008214Y003045D01*
X008242Y003074D01*
X008242Y003159D01*
X008072Y003159D01*
X008157Y002975D02*
X008129Y002946D01*
X008129Y002890D01*
X008157Y002861D01*
X008214Y002861D01*
X008242Y002890D01*
X008242Y002946D01*
X008214Y002975D01*
X008157Y002975D01*
X008129Y002795D02*
X008129Y002738D01*
X008101Y002767D02*
X008214Y002767D01*
X008242Y002795D01*
X008242Y002668D02*
X008157Y002668D01*
X008129Y002639D01*
X008157Y002611D01*
X008242Y002611D01*
X008242Y002554D02*
X008129Y002554D01*
X008129Y002583D01*
X008157Y002611D01*
X008157Y002484D02*
X008129Y002455D01*
X008129Y002398D01*
X008157Y002370D01*
X008214Y002370D01*
X008242Y002398D01*
X008242Y002455D01*
X008186Y002484D02*
X008186Y002370D01*
X008186Y002484D02*
X008157Y002484D01*
X008072Y002299D02*
X008072Y002186D01*
X008242Y002186D01*
X008157Y002186D02*
X008157Y002243D01*
X008157Y003650D02*
X008242Y003650D01*
X008242Y004273D02*
X008072Y004273D01*
X008072Y004358D01*
X008101Y004387D01*
X008157Y004358D02*
X008186Y004387D01*
X008214Y004387D01*
X008242Y004358D01*
X008242Y004273D01*
D12*
X008101Y001937D02*
X007432Y001937D01*
X007432Y000441D01*
X008101Y000441D01*
X008101Y001937D01*
X007924Y001268D02*
X007766Y001268D01*
X007924Y001110D01*
X007609Y001110D01*
X007766Y001268D01*
X007609Y001268D01*
X003563Y002880D02*
X002894Y002880D01*
X002894Y004376D01*
X003563Y004376D01*
X003563Y002880D01*
X002904Y003485D02*
X002904Y004559D01*
X000637Y004559D01*
X000637Y003485D01*
X002904Y003485D01*
X003071Y003549D02*
X003229Y003549D01*
X003071Y003706D01*
X003386Y003706D01*
X003229Y003549D01*
X003386Y003549D01*
X001853Y003475D02*
X001223Y003475D01*
X001695Y003847D02*
X001845Y004022D01*
X001695Y004197D01*
X001695Y003847D01*
X001845Y003847D02*
X001845Y004197D01*
X001853Y003081D02*
X001853Y002727D01*
X001853Y002333D02*
X001223Y002333D01*
X000649Y002287D02*
X000649Y001213D01*
X002916Y001213D01*
X002916Y002287D01*
X000649Y002287D01*
X001707Y001925D02*
X001707Y001575D01*
X001857Y001575D02*
X001707Y001750D01*
X001857Y001925D01*
X001857Y001575D01*
D13*
X004747Y001846D02*
X004865Y001727D01*
X006479Y001727D02*
X006597Y001846D01*
X005003Y003263D02*
X005005Y003278D01*
X005010Y003291D01*
X005019Y003303D01*
X005030Y003313D01*
X005044Y003319D01*
X005058Y003322D01*
X005073Y003321D01*
X005087Y003316D01*
X005100Y003308D01*
X005110Y003298D01*
X005117Y003285D01*
X005121Y003270D01*
X005121Y003256D01*
X005117Y003241D01*
X005110Y003228D01*
X005100Y003218D01*
X005087Y003210D01*
X005073Y003205D01*
X005058Y003204D01*
X005044Y003207D01*
X005030Y003213D01*
X005019Y003223D01*
X005010Y003235D01*
X005005Y003248D01*
X005003Y003263D01*
X004747Y003460D02*
X004865Y003578D01*
X006479Y003578D02*
X006597Y003460D01*
D14*
X001437Y000700D02*
X001437Y000300D01*
X000637Y000300D01*
X000637Y000700D01*
X001437Y000700D01*
M02*
