G75*
G70*
%OFA0B0*%
%FSLAX24Y24*%
%IPPOS*%
%LPD*%
%AMOC8*
5,1,8,0,0,1.08239X$1,22.5*
%
%ADD10R,0.0434X0.0356*%
%ADD11C,0.0530*%
%ADD12R,0.0356X0.0434*%
%ADD13R,0.0430X0.0355*%
%ADD14R,0.0611X0.0237*%
%ADD15R,0.0710X0.0907*%
%ADD16R,0.0828X0.0789*%
%ADD17R,0.0828X0.0828*%
%ADD18R,0.0867X0.0867*%
%ADD19R,0.0454X0.0178*%
%ADD20R,0.0178X0.0454*%
%ADD21C,0.0299*%
D10*
X006569Y003585D03*
X006569Y004097D03*
D11*
X007762Y003908D03*
X007762Y004408D03*
X007762Y004908D03*
X007005Y005597D03*
X006505Y005597D03*
X006005Y005597D03*
X005505Y005597D03*
X005005Y005597D03*
X004505Y005597D03*
X004005Y005597D03*
X003505Y005597D03*
X003005Y005597D03*
X002505Y005597D03*
X002005Y005597D03*
X001505Y005597D03*
X001005Y005597D03*
X000505Y005597D03*
X002501Y000656D03*
X003001Y000656D03*
X003501Y000656D03*
X004001Y000656D03*
X004501Y000656D03*
X005001Y000656D03*
X005501Y000656D03*
X006001Y000656D03*
X007762Y002408D03*
X007762Y002908D03*
X007762Y003408D03*
D12*
X004730Y004342D03*
X004218Y004342D03*
X004208Y004851D03*
X004720Y004851D03*
X003700Y002315D03*
X003189Y002315D03*
X003189Y001759D03*
X003701Y001759D03*
X003705Y001229D03*
X003193Y001229D03*
D13*
X003216Y002807D03*
X003616Y002807D03*
X003616Y003209D03*
X003216Y003209D03*
X003216Y003610D03*
X003616Y003610D03*
X003616Y004012D03*
X003216Y004012D03*
D14*
X001869Y003325D03*
X001869Y003073D03*
X001869Y002813D03*
X001869Y002561D03*
X001869Y002301D03*
D15*
X001822Y001593D03*
X001822Y004034D03*
D16*
X000818Y001238D03*
X000818Y004388D03*
D17*
X000818Y003286D03*
X000818Y002341D03*
D18*
X005627Y002296D03*
D19*
X004948Y002424D03*
X004948Y002680D03*
X004948Y002168D03*
X004948Y001912D03*
X006306Y001912D03*
X006306Y002168D03*
X006306Y002424D03*
X006306Y002680D03*
D20*
X006011Y002975D03*
X005755Y002975D03*
X005499Y002975D03*
X005244Y002975D03*
X005244Y001617D03*
X005499Y001617D03*
X005755Y001617D03*
X006011Y001617D03*
D21*
X005757Y001272D03*
X005248Y001127D03*
X004587Y001691D03*
X004237Y002226D03*
X004227Y002571D03*
X003962Y003266D03*
X004427Y003646D03*
X004167Y003786D03*
X004572Y003941D03*
X004982Y003931D03*
X005367Y003941D03*
X005437Y004221D03*
X005807Y004436D03*
X005262Y004801D03*
X005132Y004536D03*
X005582Y004911D03*
X005197Y005056D03*
X006517Y004841D03*
X006807Y004486D03*
X007407Y004136D03*
X007237Y003526D03*
X006257Y003259D03*
X006952Y002771D03*
X006907Y001761D03*
X006612Y001297D03*
X005228Y003271D03*
X003652Y004471D03*
X003257Y004686D03*
X002977Y004876D03*
X003257Y005186D03*
X003607Y004936D03*
X002722Y003121D03*
X002457Y002811D03*
X002627Y002346D03*
X002607Y001086D03*
X001847Y000876D03*
X007307Y005136D03*
M02*
