G75*
G70*
%OFA0B0*%
%FSLAX24Y24*%
%IPPOS*%
%LPD*%
%AMOC8*
5,1,8,0,0,1.08239X$1,22.5*
%
%ADD10R,0.0354X0.0276*%
%ADD11C,0.0450*%
%ADD12R,0.0276X0.0354*%
%ADD13R,0.0350X0.0275*%
%ADD14R,0.0531X0.0157*%
%ADD15R,0.0630X0.0827*%
%ADD16R,0.0748X0.0709*%
%ADD17R,0.0748X0.0748*%
%ADD18R,0.0787X0.0787*%
%ADD19R,0.0374X0.0098*%
%ADD20R,0.0098X0.0374*%
%ADD21C,0.0100*%
%ADD22C,0.0219*%
%ADD23C,0.0050*%
D10*
X006569Y003585D03*
X006569Y004097D03*
D11*
X007762Y003908D03*
X007762Y004408D03*
X007762Y004908D03*
X007005Y005597D03*
X006505Y005597D03*
X006005Y005597D03*
X005505Y005597D03*
X005005Y005597D03*
X004505Y005597D03*
X004005Y005597D03*
X003505Y005597D03*
X003005Y005597D03*
X002505Y005597D03*
X002005Y005597D03*
X001505Y005597D03*
X001005Y005597D03*
X000505Y005597D03*
X002501Y000656D03*
X003001Y000656D03*
X003501Y000656D03*
X004001Y000656D03*
X004501Y000656D03*
X005001Y000656D03*
X005501Y000656D03*
X006001Y000656D03*
X007762Y002408D03*
X007762Y002908D03*
X007762Y003408D03*
D12*
X004730Y004342D03*
X004218Y004342D03*
X004208Y004851D03*
X004720Y004851D03*
X003700Y002315D03*
X003189Y002315D03*
X003189Y001759D03*
X003701Y001759D03*
X003705Y001229D03*
X003193Y001229D03*
D13*
X003216Y002807D03*
X003616Y002807D03*
X003616Y003209D03*
X003216Y003209D03*
X003216Y003610D03*
X003616Y003610D03*
X003616Y004012D03*
X003216Y004012D03*
D14*
X001869Y003325D03*
X001869Y003073D03*
X001869Y002813D03*
X001869Y002561D03*
X001869Y002301D03*
D15*
X001822Y001593D03*
X001822Y004034D03*
D16*
X000818Y004388D03*
X000818Y001238D03*
D17*
X000818Y002341D03*
X000818Y003286D03*
D18*
X005627Y002296D03*
D19*
X004948Y002424D03*
X004948Y002680D03*
X004948Y002168D03*
X004948Y001912D03*
X006306Y001912D03*
X006306Y002168D03*
X006306Y002424D03*
X006306Y002680D03*
D20*
X006011Y002975D03*
X005755Y002975D03*
X005499Y002975D03*
X005244Y002975D03*
X005244Y001617D03*
X005499Y001617D03*
X005755Y001617D03*
X006011Y001617D03*
D21*
X001822Y004034D02*
X001467Y004388D01*
X000818Y004388D01*
X000818Y003286D01*
X000818Y002341D01*
X000818Y001238D01*
X000818Y004388D02*
X000818Y005409D01*
X001005Y005597D01*
D22*
X002977Y004876D03*
X003257Y004686D03*
X003607Y004936D03*
X003257Y005186D03*
X003652Y004471D03*
X004167Y003786D03*
X004427Y003646D03*
X004572Y003941D03*
X004982Y003931D03*
X005367Y003941D03*
X005437Y004221D03*
X005807Y004436D03*
X005262Y004801D03*
X005132Y004536D03*
X005582Y004911D03*
X005197Y005056D03*
X006517Y004841D03*
X006807Y004486D03*
X007407Y004136D03*
X007237Y003526D03*
X006257Y003259D03*
X006952Y002771D03*
X006907Y001761D03*
X006612Y001297D03*
X005757Y001272D03*
X005248Y001127D03*
X004587Y001691D03*
X004237Y002226D03*
X004227Y002571D03*
X003962Y003266D03*
X002722Y003121D03*
X002457Y002811D03*
X002627Y002346D03*
X002607Y001086D03*
X001847Y000876D03*
X005228Y003271D03*
X007307Y005136D03*
D23*
X002287Y001086D02*
X001357Y001086D01*
X001357Y002816D01*
X001872Y002816D01*
X001869Y002813D01*
X001869Y002561D02*
X001497Y002561D01*
X001497Y002126D01*
X002497Y002126D01*
X002497Y001756D01*
X003189Y001756D01*
X003189Y001759D01*
X003447Y001506D02*
X003447Y000986D01*
X003547Y000986D01*
X003557Y000976D01*
X003597Y000976D01*
X003617Y000956D01*
X003887Y000956D01*
X003897Y000966D01*
X003967Y000966D01*
X003977Y000976D01*
X004017Y000976D01*
X004027Y000986D01*
X005107Y000986D01*
X005117Y000976D01*
X005157Y000976D01*
X005177Y000956D01*
X005297Y000956D01*
X005317Y000976D01*
X005337Y000976D01*
X005347Y000986D01*
X005397Y000986D01*
X005407Y000996D01*
X006327Y000996D01*
X006327Y001406D01*
X006477Y001556D01*
X006648Y001556D01*
X006747Y001456D01*
X007198Y001456D01*
X007237Y001496D01*
X007237Y001956D01*
X006787Y002406D01*
X006787Y002656D01*
X006282Y003161D01*
X006282Y003259D01*
X006257Y003259D01*
X006267Y003556D02*
X006569Y003556D01*
X006569Y003585D01*
X006267Y003556D02*
X006267Y004466D01*
X006807Y004466D01*
X006807Y004486D01*
X006597Y004626D02*
X006797Y004826D01*
X006797Y004916D01*
X006697Y005016D01*
X005777Y005016D01*
X005777Y004756D01*
X005637Y004616D01*
X005212Y004616D01*
X005132Y004536D01*
X005157Y004276D02*
X004796Y004276D01*
X004730Y004342D01*
X004730Y004203D01*
X004790Y004323D02*
X004730Y004342D01*
X004730Y004781D01*
X004720Y004851D01*
X005137Y005116D02*
X003968Y005116D01*
X003829Y005254D01*
X003507Y005254D01*
X003505Y005256D01*
X003505Y005597D01*
X003257Y005186D02*
X001537Y005186D01*
X001517Y005206D01*
X001517Y005584D01*
X001505Y005597D01*
X002977Y004876D02*
X003547Y004876D01*
X003607Y004936D01*
X003867Y004686D02*
X003257Y004686D01*
X003216Y004686D01*
X003216Y004012D01*
X003216Y003816D02*
X003527Y003816D01*
X003527Y004012D01*
X003616Y004012D01*
X003652Y004012D01*
X003652Y004471D01*
X003867Y004686D02*
X004032Y004851D01*
X004208Y004851D01*
X003867Y004686D02*
X003867Y003610D01*
X003616Y003610D01*
X003616Y003209D01*
X003905Y003209D01*
X003962Y003266D01*
X003693Y003286D02*
X003616Y003209D01*
X003216Y003209D02*
X003216Y002807D01*
X003216Y002576D01*
X004222Y002576D01*
X004227Y002571D01*
X004407Y002476D02*
X004527Y002356D01*
X004527Y002066D01*
X004277Y001816D01*
X004277Y001676D01*
X004437Y001516D01*
X005143Y001516D01*
X005244Y001617D01*
X005483Y001600D02*
X005483Y001396D01*
X005444Y001356D01*
X005089Y001356D01*
X005050Y001396D01*
X004420Y001396D01*
X004390Y001426D01*
X004387Y001426D01*
X004197Y001616D01*
X004197Y001906D01*
X004427Y002136D01*
X004427Y002296D01*
X004327Y002396D01*
X004107Y002396D01*
X004027Y002316D01*
X004027Y002116D01*
X003957Y002046D01*
X003957Y001776D01*
X003940Y001759D01*
X003701Y001759D01*
X003758Y001816D01*
X003728Y001786D02*
X003701Y001759D01*
X003687Y002036D02*
X002627Y002036D01*
X002627Y002346D01*
X002722Y002346D01*
X002722Y003121D01*
X002722Y003926D01*
X001822Y003926D01*
X001822Y004034D01*
X001869Y004034D01*
X001869Y003325D01*
X002427Y002781D02*
X002457Y002811D01*
X002427Y002781D02*
X002427Y002301D01*
X001869Y002301D01*
X001822Y001593D02*
X001908Y001506D01*
X003447Y001506D01*
X003193Y001276D02*
X002287Y001276D01*
X002287Y001086D01*
X002307Y000976D02*
X002247Y000916D01*
X002227Y000916D01*
X002187Y000876D01*
X001847Y000876D01*
X002307Y000976D02*
X002367Y000976D01*
X002387Y000996D01*
X002517Y000996D01*
X002607Y001086D01*
X003193Y001206D02*
X003193Y001229D01*
X003193Y001276D01*
X003705Y001229D02*
X003735Y001199D01*
X003908Y001199D01*
X004026Y001081D01*
X005089Y001081D01*
X005135Y001127D01*
X005248Y001127D01*
X005129Y001278D02*
X005089Y001238D01*
X004892Y001238D01*
X004805Y001326D01*
X004237Y001326D01*
X004097Y001466D01*
X004097Y001986D01*
X004237Y002126D01*
X004237Y002226D01*
X004407Y002476D02*
X004407Y002728D01*
X004217Y002918D01*
X004101Y002802D01*
X003861Y002802D01*
X003616Y002807D01*
X004217Y002918D02*
X004217Y003416D01*
X003977Y003656D01*
X003977Y004451D01*
X004237Y004451D01*
X004218Y004342D01*
X004572Y003941D02*
X004582Y003931D01*
X004982Y003931D01*
X005367Y003941D02*
X005737Y003941D01*
X005737Y004061D01*
X005812Y004061D01*
X006037Y004286D01*
X006037Y004841D01*
X006517Y004841D01*
X006597Y004626D02*
X006127Y004626D01*
X006127Y004216D01*
X006017Y004106D01*
X006017Y002893D01*
X006011Y002975D01*
X005755Y002975D02*
X005737Y002904D01*
X005737Y003941D01*
X005592Y004221D02*
X005437Y004221D01*
X005592Y004221D02*
X005807Y004436D01*
X005372Y004911D02*
X005262Y004801D01*
X005372Y004911D02*
X005582Y004911D01*
X005257Y005116D02*
X005197Y005056D01*
X005137Y005116D01*
X005257Y005116D02*
X006924Y005116D01*
X007137Y004902D01*
X007137Y004366D01*
X006977Y004206D01*
X006977Y003216D01*
X007177Y003216D01*
X007177Y003096D01*
X007377Y003096D01*
X007377Y001297D01*
X006612Y001297D01*
X006827Y001566D02*
X007087Y001566D01*
X007087Y001886D01*
X006627Y002346D01*
X006627Y002576D01*
X006524Y002680D01*
X006306Y002680D01*
X006374Y002680D01*
X006439Y002424D02*
X006306Y002424D01*
X006439Y002424D02*
X006497Y002366D01*
X006501Y002366D01*
X006526Y002341D01*
X006526Y002301D01*
X006907Y001920D01*
X006907Y001761D01*
X006827Y001566D02*
X006647Y001746D01*
X006177Y001746D01*
X006177Y001307D01*
X005987Y001307D01*
X005947Y001267D01*
X005947Y001216D01*
X005827Y001096D01*
X005698Y001096D01*
X005673Y001120D01*
X005483Y001120D01*
X005444Y001160D01*
X005444Y001238D01*
X005404Y001278D01*
X005129Y001278D01*
X005483Y001600D02*
X005499Y001617D01*
X005755Y001617D02*
X005755Y001411D01*
X005757Y001272D01*
X005755Y002168D02*
X006306Y002168D01*
X005755Y002168D02*
X005627Y002296D01*
X005244Y002680D01*
X005244Y002975D01*
X005244Y003267D01*
X005228Y003271D01*
X005247Y003310D01*
X005244Y003310D01*
X005167Y003386D01*
X005167Y004266D01*
X005157Y004276D01*
X004527Y003796D02*
X004177Y003796D01*
X004167Y003786D01*
X004427Y003646D02*
X004587Y003486D01*
X004587Y002806D01*
X004527Y002746D01*
X004527Y002516D01*
X004608Y002436D01*
X004608Y002006D01*
X004587Y001986D01*
X004587Y001691D01*
X004698Y002167D02*
X004698Y002515D01*
X004667Y002546D01*
X004667Y002746D01*
X004707Y002786D01*
X004707Y003616D01*
X004527Y003796D01*
X003216Y003816D02*
X003216Y003610D01*
X002917Y003610D01*
X002917Y002326D01*
X003189Y002326D01*
X003189Y002315D01*
X003687Y002315D02*
X003687Y002036D01*
X003700Y002315D02*
X003687Y002315D01*
X004698Y002167D02*
X004775Y002168D01*
X004948Y002168D01*
X006817Y003026D02*
X006927Y003026D01*
X006927Y002796D01*
X006952Y002771D01*
X006817Y003026D02*
X006817Y004066D01*
X006569Y004066D01*
X006569Y004097D01*
X007117Y004166D02*
X007117Y003646D01*
X007237Y003526D01*
X007407Y003706D02*
X007407Y004136D01*
X007319Y004368D02*
X007117Y004166D01*
X007319Y004368D02*
X007319Y004408D01*
X007762Y004408D01*
X007407Y003706D02*
X007706Y003408D01*
X007762Y003408D01*
X007307Y005136D02*
X007207Y005236D01*
X004187Y005236D01*
X004005Y005418D01*
X004005Y005597D01*
M02*
